 <svg  version="1.0" xmlns="http://www.w3.org/2000/svg"  width="225.000000pt" height="225.000000pt" viewBox="0 0 225.000000 225.000000"  preserveAspectRatio="xMidYMid meet">  <g transform="translate(0.000000,225.000000) scale(0.100000,-0.100000)" fill="#0089ad" stroke="none"> <path d="M943 2121 c-61 -38 -69 -65 -118 -386 -9 -60 -22 -148 -30 -195 -8 -47 -21 -130 -30 -185 -16 -103 -64 -408 -91 -575 -8 -52 -17 -111 -20 -130 -2 -19 -9 -62 -14 -95 -5 -33 -16 -107 -25 -165 -9 -58 -20 -129 -25 -158 -10 -58 4 -104 35 -116 26 -10 704 -7 776 4 212 31 421 161 538 335 59 89 84 152 111 284 50 247 10 421 -130 561 -75 75 -155 118 -277 149 -148 38 -400 26 -461 -22 -7 -5 -15 -8 -17 -5 -5 5 7 81 40 258 35 184 44 257 39 300 -15 112 -63 152 -188 157 -68 4 -86 1 -113 -16z m14 -1062 c-4 -31 -2 -38 6 -30 27 27 84 9 102 -33 14 -32 14 -32 30 19 6 20 34 30 46 18 13 -13 -10 -149 -27 -164 -28 -23 -44 -3 -38 48 l6 48 -22 -42 c-25 -49 -69 -72 -109 -56 -18 6 -32 6 -44 -1 -12 -8 -20 -7 -29 2 -9 9 -8 27 5 84 10 40 17 84 17 99 0 30 17 49 43 49 17 0 19 -5 14 -41z m207 24 c7 -18 -9 -33 -36 -33 -21 0 -30 13 -22 34 8 21 50 21 58 -1z m139 -57 c13 -10 17 -25 15 -53 l-3 -38 -59 -5 c-53 -4 -57 -7 -42 -19 13 -11 22 -12 42 -2 35 16 44 14 44 -9 0 -42 -106 -52 -136 -13 -27 37 -4 120 39 141 31 15 79 14 100 -2z m97 4 c0 -7 7 -7 20 0 12 6 33 10 48 8 32 -4 38 -30 27 -115 -5 -41 -11 -54 -27 -59 -29 -9 -35 8 -28 67 5 40 3 52 -8 57 -21 7 -40 -23 -48 -74 -4 -31 -12 -45 -26 -50 -11 -3 -22 -3 -26 0 -6 6 16 154 25 169 7 11 43 8 43 -3z m-502 -278 c3 -29 6 -31 43 -30 52 1 69 -15 69 -65 0 -56 -32 -105 -76 -113 -21 -4 -40 -2 -49 6 -12 10 -18 10 -31 0 -12 -11 -18 -11 -29 1 -11 11 -12 25 -4 64 6 28 14 74 19 104 13 75 52 97 58 33z m507 29 c6 -11 -42 -51 -61 -51 -19 0 -18 20 3 42 17 19 48 24 58 9z m-115 -33 c0 -60 -32 -197 -47 -202 -37 -15 -39 5 -13 153 13 76 15 81 41 81 15 0 19 -7 19 -32z m-104 -38 c1 0 6 -13 12 -28 14 -40 5 -76 -27 -106 -65 -62 -151 -34 -151 48 0 70 61 113 135 94 16 -4 31 -8 31 -8z m176 -15 c-12 -97 -17 -119 -33 -138 -14 -18 -20 -20 -30 -9 -11 10 -11 26 -1 83 15 85 18 91 45 87 15 -2 21 -9 19 -23z m73 3 c2 -13 6 -36 7 -53 3 -29 4 -29 32 23 23 41 34 52 50 50 30 -4 25 -26 -28 -107 -57 -89 -73 -90 -98 -6 -26 87 -24 115 7 115 17 0 26 -7 30 -22z m253 10 c15 -15 15 -43 0 -108 -11 -46 -14 -51 -37 -49 -14 1 -38 -1 -53 -5 -40 -12 -68 8 -68 48 0 44 37 71 87 63 30 -5 33 -4 22 9 -8 10 -22 12 -45 8 -29 -5 -34 -3 -34 13 0 11 3 23 7 26 11 12 108 8 121 -5z m144 6 c13 -8 -4 -35 -32 -49 -22 -11 -30 -25 -36 -62 -8 -42 -12 -48 -34 -48 -27 0 -27 -2 -16 86 9 75 12 78 64 77 26 0 50 -2 54 -4z"/> <path d="M950 976 c-18 -23 -8 -61 17 -64 30 -4 61 41 43 63 -16 19 -44 19 -60 1z"/> <path d="M1223 985 c-17 -13 -16 -14 15 -15 33 0 43 13 18 23 -8 3 -22 -1 -33 -8z"/> <path d="M897 662 c-21 -23 -22 -46 -3 -61 32 -26 82 33 56 64 -17 20 -33 19 -53 -3z"/> <path d="M1087 662 c-32 -35 -12 -77 31 -65 26 6 39 47 22 68 -17 20 -33 19 -53 -3z"/> <path d="M1585 610 c-3 -5 -4 -14 0 -20 7 -11 55 8 55 22 0 11 -48 10 -55 -2z"/> <path d="M391 1411 c-27 -29 -25 -19 -76 -341 -27 -171 -47 -296 -57 -350 -9 -51 -25 -160 -48 -320 -5 -36 -14 -86 -19 -110 -17 -73 -14 -123 9 -143 27 -23 197 -24 240 -2 45 23 43 14 85 285 9 58 23 143 30 190 14 84 28 173 60 380 9 58 23 141 31 185 43 250 40 255 -119 255 -107 0 -109 -1 -136 -29z"/> </g> </svg> 